# xmcd
#
# Track frame offsets:
#	150
#	12917
#	24722
#	39307
#	54387
#	66660
#	81465
#	98565
#	112617
#	127147
#	141372
#	154297
#	168567
#	180965
#
# Disc length: 2578 seconds
#
# Revision: 0
# Processed by: cddbd v1.5.2PL0 Copyright (c) Steve Scherf et al.
# Submitted via: dBpowerAMP V4.0
#
DISCID=ba0a100e
DTITLE=Nat King Cole - Meus Momentos
DYEAR=1900
DGENRE=
TTITLE0=Dance, Ballerina, Dance
TTITLE1=Nature Boy
TTITLE2=Mona Lisa
TTITLE3=Mood Indigo
TTITLE4=Welcome to the Club
TTITLE5=Embraceable You
TTITLE6=The Very Thought of You
TTITLE7=Sweet Lorraine
TTITLE8=Stardust
TTITLE9=When I Fall in Love
TTITLE10=(I Love You) For Sentimental Reasons
TTITLE11=Unforgettable
TTITLE12=My Baby Just Cares For Me
TTITLE13=Let's Fall in Love
EXTD=
EXTT0=
EXTT1=
EXTT2=
EXTT3=
EXTT4=
EXTT5=
EXTT6=
EXTT7=
EXTT8=
EXTT9=
EXTT10=
EXTT11=
EXTT12=
EXTT13=
PLAYORDER=
